<?xml version="1.0" encoding="utf-8"?>
<!-- Generator: Adobe Illustrator 21.0.0, SVG Export Plug-In . SVG Version: 6.00 Build 0)  -->
<svg version="1.1" xmlns="http://www.w3.org/2000/svg" xmlns:xlink="http://www.w3.org/1999/xlink" x="0px" y="0px" width="479.8px"
	 height="143.3px" viewBox="0 0 479.8 143.3" enable-background="new 0 0 479.8 143.3" xml:space="preserve">
<g id="Logo_on_dark_backgrounds">
</g>
<g id="Logo_on_white_backgrounds">
	<g>
		<path fill="#CCCCCC" d="M59,99.3c0.4,0.4,0.6,0.9,0.6,1.5c0,0.6-0.2,1.1-0.6,1.4c-0.4,0.4-0.9,0.6-1.4,0.6h-11
			c-2.9,0-5.6-0.5-8.3-1.6c-2.6-1.1-5-2.6-7-4.6c-2-2.1-3.6-4.4-4.7-7.1c-1.1-2.6-1.6-5.4-1.6-8.3V63.9c0-3,0.6-5.8,1.7-8.4
			c1.1-2.6,2.7-4.9,4.6-6.9c1.9-2,4.2-3.5,6.9-4.6c2.6-1.1,5.5-1.7,8.4-1.7h10.9c0.6,0,1.1,0.2,1.5,0.6c0.4,0.4,0.6,0.9,0.6,1.5
			c0,0.6-0.2,1.1-0.6,1.4c-0.4,0.4-0.9,0.6-1.5,0.6H46.6c-2.4,0-4.7,0.5-6.8,1.4c-2.1,0.9-4,2.2-5.6,3.8c-1.6,1.6-2.9,3.5-3.8,5.6
			c-0.9,2.1-1.4,4.4-1.4,6.8v17.4c0,4.9,1.7,9,5.2,12.3c1.6,1.7,3.5,3,5.6,3.8c2.1,0.9,4.4,1.3,6.8,1.3h11
			C58.2,98.7,58.7,98.9,59,99.3z"/>
		<path fill="#CCCCCC" d="M114.3,100.1c0.1,0.5,0.1,1.1-0.2,1.6c-0.2,0.5-0.6,0.9-1.2,1.1c-0.5,0.2-1.1,0.2-1.6-0.1
			c-0.5-0.3-0.8-0.7-1-1.3l-6.5-18.5H75.5l-6.3,18.5c-0.2,0.6-0.6,1-1.1,1.3c-0.5,0.3-1,0.3-1.6,0.1c-0.6-0.2-1-0.6-1.2-1.1
			c-0.2-0.5-0.3-1,0-1.6l19.4-56.4c0.4-1,1-1.4,1.9-1.4h6.2c1,0,1.7,0.5,1.9,1.4L114.3,100.1z M102.5,78.8L91.3,46.4H88L76.8,78.8
			H102.5z"/>
		<path fill="#CCCCCC" d="M130.7,46.4c-2,0-3.8,0.7-5.4,2.2c-1.4,1.5-2.2,3.3-2.2,5.4c0,2.1,0.7,3.9,2.2,5.4L152,82.8
			c1.3,1.1,2.2,2.4,2.8,3.9c0.6,1.5,0.9,3,0.9,4.5c0,1.7-0.3,3.2-0.9,4.6c-0.6,1.4-1.5,2.6-2.5,3.7c-1.1,1-2.3,1.9-3.7,2.5
			c-1.4,0.6-2.9,0.9-4.5,0.9h-23.4c-0.6,0-1.1-0.2-1.4-0.6c-0.4-0.4-0.6-0.9-0.6-1.4c0-0.6,0.2-1.1,0.6-1.5c0.4-0.4,0.9-0.6,1.4-0.6
			h23.4c2.1,0,3.9-0.7,5.3-2.2c1.4-1.5,2.1-3.2,2.1-5.3c0-2.1-0.8-3.9-2.2-5.4l-26.6-23.5c-1.1-1.1-2-2.4-2.6-3.9
			c-0.6-1.5-1-3-1-4.5c0-1.5,0.3-3,0.9-4.4c0.6-1.4,1.4-2.7,2.5-3.8c2.3-2.2,5.1-3.4,8.3-3.4h23.4c0.6,0,1.1,0.2,1.5,0.6
			c0.4,0.4,0.6,0.9,0.5,1.5c0,0.6-0.2,1.1-0.6,1.4c-0.4,0.4-0.9,0.6-1.4,0.6H130.7z"/>
		<path fill="#CCCCCC" d="M185.5,42.3c2.4,0,4.7,0.5,6.8,1.4c2.2,0.9,4,2.2,5.6,3.8c1.6,1.6,2.9,3.5,3.8,5.6
			c0.9,2.1,1.4,4.4,1.4,6.9c0,2.5-0.5,4.7-1.4,6.9c-0.9,2.1-2.2,4-3.8,5.6c-1.6,1.6-3.5,2.9-5.6,3.8c-2.2,0.9-4.4,1.4-6.8,1.4h-17
			v23.3c0,0.6-0.2,1.1-0.6,1.4c-0.4,0.4-0.9,0.6-1.4,0.6c-0.6,0-1.1-0.2-1.5-0.6c-0.4-0.4-0.6-0.9-0.6-1.4V44.4
			c0-0.6,0.2-1.1,0.6-1.5c0.4-0.4,0.9-0.6,1.5-0.6h0.1H185.5z M185.5,73.5c1.9,0,3.6-0.4,5.2-1.1c1.6-0.7,3.1-1.7,4.3-2.9
			c1.2-1.2,2.2-2.7,2.9-4.3c0.7-1.6,1.1-3.4,1.1-5.2c0-1.9-0.4-3.6-1.1-5.3c-0.7-1.7-1.7-3.1-2.9-4.3c-1.2-1.2-2.7-2.2-4.3-2.9
			c-1.6-0.7-3.4-1.1-5.2-1.1h-17v27.1H185.5z"/>
		<path fill="#CCCCCC" d="M249.8,100.1c0.1,0.5,0.1,1.1-0.2,1.6c-0.2,0.5-0.6,0.9-1.2,1.1c-0.5,0.2-1.1,0.2-1.6-0.1
			c-0.5-0.3-0.8-0.7-1-1.3l-6.5-18.5H211l-6.3,18.5c-0.2,0.6-0.6,1-1.1,1.3c-0.5,0.3-1,0.3-1.6,0.1c-0.6-0.2-1-0.6-1.2-1.1
			c-0.2-0.5-0.3-1,0-1.6l19.4-56.4c0.4-1,1-1.4,1.9-1.4h6.2c1,0,1.7,0.5,1.9,1.4L249.8,100.1z M238.1,78.8l-11.2-32.4h-3.3
			l-11.2,32.4H238.1z"/>
		<path fill="#CCCCCC" d="M294.7,99.7c0.3,0.4,0.3,0.9,0.2,1.4c-0.1,0.5-0.4,1-0.9,1.4c-0.5,0.3-1,0.4-1.6,0.3c-0.6-0.1-1-0.5-1.2-1
			l-15.4-24.2H260v23.3c0,0.6-0.2,1.1-0.6,1.4c-0.4,0.4-0.9,0.6-1.4,0.6c-0.6,0-1.1-0.2-1.4-0.6c-0.4-0.4-0.6-0.9-0.6-1.4V44.4
			c0-0.6,0.2-1.1,0.6-1.5c0.4-0.4,0.9-0.6,1.4-0.6h0.2H277c2.5,0,4.7,0.5,6.9,1.4c2.1,0.9,4,2.2,5.6,3.8c1.6,1.6,2.9,3.5,3.8,5.6
			c0.9,2.1,1.4,4.4,1.4,6.9c0,2.1-0.4,4.2-1.1,6.1c-0.7,1.9-1.7,3.6-3,5.2c-1.3,1.5-2.7,2.8-4.5,3.9c-1.7,1.1-3.6,1.8-5.6,2.2
			L294.7,99.7z M260,73.5h17c1.9,0,3.6-0.4,5.3-1.1c1.7-0.7,3.1-1.7,4.3-2.9c1.2-1.2,2.2-2.7,2.9-4.3c0.7-1.6,1-3.4,1-5.2
			c0-1.9-0.3-3.6-1-5.3c-0.7-1.7-1.7-3.1-2.9-4.3c-1.2-1.2-2.7-2.2-4.3-2.9c-1.7-0.7-3.4-1.1-5.3-1.1h-17V73.5z"/>
	</g>
	<g>
		<g>
			<path d="M406.6,22.3c-3.3-8.3-10.9-10.3-17.1-6.4c-6.2,3.9-7.8,10.3-4.7,17.7c2.7,7.7,11.9,16.3,14.5,25.5l12.9-26.4
				C409.4,29.8,408.2,26.4,406.6,22.3z"/>
			<path d="M436.8,22.3c3.3-8.3,10.9-10.3,17.1-6.4c6.2,3.9,7.8,10.3,4.7,17.7c-2.8,7.7-11.9,16.3-14.5,25.5L431,32.7
				C434,29.8,435.1,26.4,436.8,22.3z"/>
			<path d="M445.2,51.2c0.1,4.9-1.8,11.9-5.9,18.3c-4,6.3-10.2,12.1-17.6,11.9c-7.4,0.1-13.6-5.6-17.6-11.9
				c-4.1-6.4-6-13.5-5.9-18.3l14.2-18.5c2.9-0.6,6-0.7,9.4-0.7c3.3,0,6.5,0.2,9.3,0.7L445.2,51.2z"/>
			<g>
				<path d="M438,88.3c-1.8-3.6-3.9-6.7-6.2-9.3c-2-4.2-5.6-7.7-9.8-7.8c-4-0.2-7.5,2.7-9.6,6.4c-3.1,3-5.9,6.7-8.1,11.2
					c-1.5,3.3-1.9,6.8-1.2,7.5c0.7,0.7,2.8-1.1,4.7-3.8c0.9-1.2,1.8-2.3,2.7-3.4c0.2,0.5,0.4,1,0.7,1.5c-0.7,2.9-1.3,5.8-2,8.8
					c-0.6,3.1,0.8,4.5,3.6,4c2.8-0.5,5.9-2.4,6.6-5c0.4-1.3,0.8-2.6,1.1-3.9c0.5,0,0.9,0.1,1.4,0.1c0.5,0,1,0,1.4,0
					c0.4,1.3,0.7,2.6,1.1,3.9c0.8,2.7,2.7,4.8,5.4,5.6c2.7,0.7,5.2-0.5,4.6-3.6c-0.6-3-1.2-6-1.9-9c0.2-0.4,0.5-0.8,0.6-1.2
					c0.5,0.6,0.9,1.2,1.4,1.8c2,2.6,4,4.5,4.7,3.8C439.9,95.1,439.5,91.5,438,88.3z"/>
			</g>
			<g>
				<circle fill="#FFFFFF" cx="406.4" cy="50.4" r="6.6"/>
				<path d="M406.4,50.4l3.2-4.2c-0.9-0.7-2-1.1-3.2-1.1c-3,0-5.3,2.4-5.3,5.3c0,3,2.4,5.3,5.3,5.3c2.9,0,5.3-2.4,5.3-5.3
					c0-0.6-0.1-1.2-0.3-1.8L406.4,50.4z"/>
			</g>
			<g>
				<circle fill="#FFFFFF" cx="436.1" cy="50.4" r="6.6"/>
				<path d="M436.1,50.4l3.2-4.2c-0.9-0.7-2-1.1-3.2-1.1c-2.9,0-5.3,2.4-5.3,5.3c0,3,2.4,5.3,5.3,5.3c3,0,5.3-2.4,5.3-5.3
					c0-0.6-0.1-1.2-0.3-1.8L436.1,50.4z"/>
			</g>
			<path fill="#FFFFFF" d="M426.5,56c-0.4-0.6-1-1.2-1.9-1.6c-0.9-0.4-2-0.6-3.3-0.6c-1.3,0-2.4,0.2-3.3,0.6c-0.9,0.4-1.5,1-1.9,1.6
				c-0.2,0.3-0.2,0.6,0,0.8c0.3,0.5,0.8,1.3,1.6,2c0.4,0.4,0.9,0.7,1.5,1c0.6,0.3,1.3,0.5,2.1,0.4h0c0.8,0,1.5-0.2,2.1-0.4
				c0.9-0.4,1.5-1,2-1.5c0.5-0.5,0.8-1.1,1-1.5C426.6,56.5,426.6,56.2,426.5,56z"/>
			<path fill="#FFFFFF" d="M419.5,51.8c0.1,0.2,0.3,0.4,0.7,0.6c0.3,0.1,0.7,0.2,1.1,0.2c0.4,0,0.8-0.1,1.1-0.2
				c0.3-0.1,0.5-0.3,0.7-0.6c0.1-0.1,0.1-0.2,0-0.3c-0.1-0.2-0.3-0.4-0.5-0.7c-0.1-0.1-0.3-0.2-0.5-0.3c-0.2-0.1-0.5-0.2-0.7-0.2h0
				c-0.3,0-0.5,0.1-0.7,0.2c-0.3,0.1-0.5,0.3-0.7,0.5c-0.2,0.2-0.3,0.4-0.4,0.5C419.5,51.6,419.5,51.7,419.5,51.8z"/>
			<path fill="#EC2224" d="M419.8,59.4c0.4,0.2,1,0.3,1.6,0.3h0c0.6,0,1.1-0.1,1.6-0.3c0.6-0.2,1-0.5,1.3-0.8
				c-0.1-0.1-0.1-0.1-0.2-0.2c-0.3-0.2-0.6-0.5-1.1-0.6c-0.4-0.2-1-0.3-1.6-0.3h0c-0.6,0-1.1,0.1-1.6,0.3c-0.6,0.2-1,0.5-1.3,0.8
				c0.1,0.1,0.1,0.1,0.2,0.2C419,59,419.3,59.2,419.8,59.4z"/>
			<rect x="411.7" y="80.2" width="20.3" height="4.5"/>
		</g>
		<g>
			<linearGradient id="SVGID_1_" gradientUnits="userSpaceOnUse" x1="382.4365" y1="59.125" x2="460.9273" y2="59.125">
				<stop  offset="0" style="stop-color:#FFFFFF"/>
				<stop  offset="0.3439" style="stop-color:#D1D1D1"/>
			</linearGradient>
			<path fill="url(#SVGID_1_)" d="M431.3,105.1c-0.6,0-1.1-0.1-1.7-0.2c-2.9-0.8-5.1-3.1-6-6.2c-0.3-1.1-0.6-2.2-0.9-3.3
				c-0.3,0-0.5,0-0.8,0c-0.2,0-0.5,0-0.7,0l-0.9,3.2c-0.9,3.1-4.4,5.1-7.3,5.7c-0.4,0.1-0.8,0.1-1.2,0.1c-1.5,0-2.4-0.6-2.8-1.2
				c-0.8-0.9-1-2.2-0.6-3.9c0.6-2.8,1.3-5.7,1.9-8.5c0,0,0,0,0,0c-0.6,0.7-1.2,1.5-1.8,2.3c-1.5,2-3.5,4.3-5,4.3
				c-0.4,0-0.8-0.1-1-0.4c-1.2-1.2-0.5-5.4,1-8.5c1.9-3.8,4.3-7.3,7.1-10.2c-2.6-2.1-5-4.8-7.1-8.1c-2.1-3.3-3.7-7-4.8-10.6
				c-1.4-4.9-4.7-9.7-7.9-14.3c-2.7-3.9-5.3-7.6-6.6-11.2c-3.3-7.7-1.5-14.6,5-18.7c2.1-1.3,4.5-2.1,6.8-2.1c5.1,0,9.4,3.3,11.6,8.9
				l0.5,1.3c1.3,3.2,2.4,6,4.7,8.5c2.5-0.5,5.4-0.7,9-0.7h0.1c3.6,0,6.5,0.2,9,0.7c2.3-2.4,3.4-5.2,4.7-8.5l0.5-1.3
				c2.2-5.5,6.5-8.9,11.6-8.9c2.3,0,4.7,0.7,6.8,2.1c6.5,4.2,8.3,11,5,18.8c-1.3,3.5-3.8,7.2-6.6,11.2c-3.2,4.6-6.5,9.4-7.9,14.3
				c-1.1,3.7-2.7,7.3-4.8,10.6c-2.2,3.5-4.8,6.4-7.6,8.5c0,0,0,0,0,0c2.5,2.8,4.6,5.9,6.3,9.4c1.5,3.1,2.3,7.3,1.1,8.6
				c-0.3,0.3-0.6,0.4-1,0.4h0c-1.2,0-2.9-1.4-5-4.3c-0.1-0.1-0.1-0.2-0.2-0.3c0.6,2.6,1.1,5.3,1.7,7.9c0.3,1.8-0.2,2.9-0.7,3.5
				C433.8,104.6,432.7,105.1,431.3,105.1z M424,93.6l0.3,1.1c0.3,1.1,0.7,2.3,1,3.5c0.7,2.5,2.4,4.3,4.8,4.9
				c1.3,0.4,2.5,0.1,3.1-0.6c0.5-0.6,0.5-1.5,0.3-2.1c-0.6-3-1.2-6-1.9-8.9l-0.1-0.4l0.2-0.3c0.2-0.3,0.4-0.6,0.5-1l0.6-1.4l1,1.2
				c0.5,0.6,1,1.2,1.4,1.9c1.8,2.4,2.9,3.3,3.4,3.5c0.2-0.8-0.1-3.4-1.5-6.4c-1.6-3.4-3.7-6.4-6.1-9.1l-0.1-0.2
				c-0.1-0.2-0.2-0.5-0.4-0.7l-0.4-0.7l0.6-0.5c2.8-2,5.5-4.9,7.7-8.4c2-3.1,3.6-6.7,4.6-10.2c1.5-5.2,4.9-10.1,8.2-14.8
				c2.7-3.8,5.2-7.4,6.4-10.8c3-7,1.5-12.9-4.3-16.6c-1.8-1.2-3.8-1.8-5.8-1.8c-4.4,0-8,2.8-9.9,7.7l-0.5,1.3
				c-1.4,3.6-2.6,6.6-5.4,9.4l-0.3,0.3l-0.5-0.1c-2.5-0.5-5.4-0.7-9.1-0.7h-0.1c-3.7,0-6.6,0.2-9.1,0.7l-0.5,0.1l-0.3-0.3
				c-2.8-2.8-4-5.8-5.4-9.4l-0.5-1.3c-1.9-4.9-5.6-7.7-9.9-7.7c-2,0-4,0.6-5.8,1.8c-5.8,3.7-7.3,9.6-4.3,16.6
				c1.2,3.4,3.7,7,6.4,10.8c3.3,4.7,6.7,9.6,8.2,14.8c1,3.5,2.6,7,4.6,10.2c2.2,3.4,4.7,6.3,7.4,8.2l0.8,0.6l-0.7,0.7
				c-3,3-5.5,6.5-7.4,10.4c-1.4,2.9-1.6,5.5-1.4,6.3c0.5-0.2,1.6-1.1,3.4-3.5c0.9-1.2,1.8-2.3,2.8-3.4l1-1.1l0.5,1.4
				c0.2,0.5,0.4,0.9,0.6,1.3l0.2,0.3l-0.1,0.4c-0.7,2.9-1.3,5.9-2,8.8c-0.2,1.1-0.1,2,0.2,2.5c0.4,0.5,1.2,0.6,2.3,0.4
				c2.4-0.5,5.3-2.1,5.9-4.4l1.3-4.6l0.7,0.1c0.5,0,0.9,0.1,1.4,0.1c0.4,0,0.9,0,1.3,0L424,93.6z"/>
		</g>
	</g>
	<g>
		<path fill="#00FFFF" d="M325.6,103c-3.1,0-6-0.6-8.8-1.7c-2.8-1.1-5.3-2.7-7.4-4.8c-2.2-2.2-3.9-4.6-5-7.3
			c-1.2-2.7-1.8-5.5-1.8-8.4V64.7c0-3.1,0.6-6,1.8-8.7c1.2-2.7,2.8-5,4.9-7c2.1-2,4.5-3.6,7.3-4.8c2.8-1.2,5.8-1.7,9-1.7H336
			c1.2,0,2.2,0.4,3,1.2c0.8,0.8,1.2,1.8,1.2,2.9c0,1.2-0.4,2.2-1.3,2.9c-0.8,0.7-1.8,1.1-3,1.1h-10.5c-2,0-3.9,0.4-5.7,1.1
			c-1.8,0.7-3.3,1.8-4.6,3c-1.3,1.3-2.4,2.8-3.1,4.5c-0.8,1.7-1.2,3.6-1.2,5.5v16.1c0,4,1.4,7.2,4.3,9.9c1.3,1.4,2.9,2.5,4.6,3.1
			c1.7,0.7,3.7,1,5.7,1h10.5c1.2,0,2.3,0.4,3,1.3c0.7,0.8,1.1,1.8,1.1,2.9c0,1.2-0.4,2.2-1.1,2.9c-0.7,0.7-1.8,1.1-3,1.1H325.6z"/>
		<path fill="#00FFFF" d="M364,104c-3.1,0-6.1-0.6-8.9-1.8c-2.8-1.2-5.3-2.8-7.3-4.9c-2.1-2-3.8-4.5-5-7.3c-1.2-2.8-1.8-5.7-1.8-8.9
			V64.6c0-3.2,0.6-6.2,1.8-8.9c1.2-2.7,2.9-5.2,5-7.3c2.1-2.1,4.6-3.7,7.3-4.9c2.8-1.2,5.8-1.8,8.9-1.8c4.4,0,8.5,1.1,12,3.3
			c3.7,2.3,6.4,5.2,8.4,9.1c0.5,0.9,0.7,2,0.4,3.1c-0.3,1.1-1,2-2.1,2.5c-0.7,0.4-1.4,0.6-2,0.6c-0.4,0-0.9-0.1-1.3-0.2
			c-1-0.4-1.8-1.1-2.4-2.1c-1.4-2.5-3.2-4.5-5.4-5.9c-2.2-1.4-4.8-2.1-7.6-2.1c-2,0-3.9,0.4-5.6,1.2c-1.8,0.8-3.3,1.8-4.7,3.1
			c-1.3,1.3-2.4,2.8-3.1,4.6c-0.7,1.8-1.1,3.7-1.1,5.6v16.6c0,2,0.4,3.9,1.1,5.6c0.7,1.7,1.8,3.3,3.1,4.6c1.3,1.3,2.9,2.4,4.6,3.1
			c1.7,0.7,3.6,1.1,5.6,1.1c2,0,3.9-0.4,5.7-1.1c1.8-0.7,3.3-1.8,4.6-3.1c1.3-1.3,2.4-2.9,3.1-4.6c0.8-1.7,1.2-3.6,1.2-5.6v-4.2
			h-9.7c-1.2,0-2.2-0.4-3-1.1c-0.8-0.8-1.1-1.8-1.1-3c0-1.1,0.4-2.1,1.1-3c0.8-0.9,1.8-1.3,3-1.3h13.8c1,0,2.1,0.4,3.1,1.3l0.1,0.1
			c0.8,0.8,1.2,1.8,1.2,2.9v8.3c0,3.1-0.6,6.1-1.8,8.9c-1.2,2.8-2.9,5.2-5,7.3c-2.1,2-4.6,3.7-7.3,4.9
			C370.2,103.4,367.1,104,364,104z"/>
	</g>
</g>
</svg>
